<?xml version="1.0" standalone="no"?>
<!DOCTYPE svg PUBLIC "-//W3C//DTD SVG 1.1//EN"
  "http://www.w3.org/Graphics/SVG/1.1/DTD/svg11.dtd">
<svg width="92mm" height="71.99999999999999mm" viewBox="-48 -41.99999999999999 92 71.99999999999999" xmlns="http://www.w3.org/2000/svg" version="1.1">
	<title>svgOutput</title>
	<desc>made with tinkercad</desc>
<path d="M 41.702999114990234 -35.94800186157226 L 42.306114196777344 -34.81600189208984 L 42.417999267578125 -34.605998992919915 L 42.854000091552734 -33.19499969482421 L 42.89705276489258 -32.76800155639648 L 43 -31.74699974060058 L 43 -28.67200088500976 L 43 -24.57600021362304 L 43 -16.38400077819824 L 43 -8.19200038909912 L 43 1.1102230246251565e-16 L 43 8.19200038909912 L 43 16.38400077819824 L 43 19.746999740600582 L 42.92609405517578 20.479999542236325 L 42.854000091552734 21.194999694824215 L 42.442100524902344 22.527999877929684 L 42.417999267578125 22.60600090026855 L 41.702999114990234 23.94799995422363 L 41.208412170410156 24.57600021362304 L 40.959999084472656 24.891420364379876 L 40.72800064086914 25.186000823974602 L 39.51599884033203 26.290000915527337 L 39.0130500793457 26.6240005493164 L 38.09600067138672 27.232999801635735 L 36.86399841308594 27.819593429565423 L 36.50400161743164 27.99099922180175 L 34.816001892089844 28.535388946533196 L 34.779998779296875 28.54700088500976 L 34.110382080078125 28.67200088500976 L 32.9640007019043 28.885999679565423 L 32.768001556396484 28.898006439208977 L 31.10300064086914 28.999999999999993 L 28.672000885009766 28.999999999999993 L 24.576000213623047 28.999999999999993 L 16.384000778198242 28.999999999999993 L 8.192000389099121 28.999999999999993 L 0 28.999999999999993 L -8.192000389099121 28.999999999999993 L -16.384000778198242 28.999999999999993 L -24.576000213623047 28.999999999999993 L -32.768001556396484 28.999999999999993 L -35.10300064086914 28.999999999999993 L -36.86399841308594 28.892126083374016 L -36.9640007019043 28.885999679565423 L -38.110382080078125 28.67200088500976 L -38.779998779296875 28.54700088500976 L -38.9119987487793 28.504428863525384 L -40.50400161743164 27.99099922180175 L -40.959999084472656 27.77388381958007 L -42.09600067138672 27.232999801635735 L -43.0130500793457 26.6240005493164 L -43.51599884033203 26.290000915527337 L -44.72800064086914 25.186000823974602 L -45.055999755859375 24.76952362060546 L -45.208412170410156 24.57600021362304 L -45.702999114990234 23.94799995422363 L -46.417999267578125 22.60600090026855 L -46.442100524902344 22.527999877929684 L -46.854000091552734 21.194999694824215 L -46.92609405517578 20.479999542236325 L -47 19.746999740600582 L -47 16.38400077819824 L -47 8.19200038909912 L -47 1.1102230246251565e-16 L -47 -8.19200038909912 L -47 -16.38400077819824 L -47 -24.57600021362304 L -47 -28.67200088500976 L -47 -31.74699974060058 L -46.89705276489258 -32.76800155639648 L -46.854000091552734 -33.19499969482421 L -46.417999267578125 -34.605998992919915 L -46.306114196777344 -34.81600189208984 L -45.702999114990234 -35.94800186157226 L -45.055999755859375 -36.76952362060546 L -44.98159408569336 -36.86399841308593 L -44.72800064086914 -37.1860008239746 L -43.51599884033203 -38.29000091552734 L -43.007999420166016 -38.62735366821288 L -42.57937240600586 -38.91199874877929 L -42.09600067138672 -39.23300170898437 L -40.959999084472656 -39.77388381958007 L -40.50400161743164 -39.99100112915038 L -38.9119987487793 -40.50442886352538 L -38.779998779296875 -40.54700088500976 L -36.9640007019043 -40.886001586914055 L -36.86399841308594 -40.89212417602538 L -35.7559814453125 -40.95999908447265 L -35.10300064086914 -40.99999999999999 L -32.768001556396484 -40.99999999999999 L -24.576000213623047 -40.99999999999999 L -16.384000778198242 -40.99999999999999 L -8.192000389099121 -40.99999999999999 L 0 -40.99999999999999 L 8.192000389099121 -40.99999999999999 L 16.384000778198242 -40.99999999999999 L 24.576000213623047 -40.99999999999999 L 31.10300064086914 -40.99999999999999 L 31.755983352661133 -40.95999908447265 L 32.768001556396484 -40.89800643920898 L 32.9640007019043 -40.886001586914055 L 34.779998779296875 -40.54700088500976 L 34.816001892089844 -40.535388946533196 L 36.50400161743164 -39.99100112915038 L 36.86399841308594 -39.81959152221679 L 38.09600067138672 -39.23300170898437 L 38.57937240600586 -38.91199874877929 L 38.9119987487793 -38.691108703613274 L 39.51599884033203 -38.29000091552734 L 40.72800064086914 -37.1860008239746 L 40.959999084472656 -36.89141845703124 L 40.98159408569336 -36.86399841308593 L 41.702999114990234 -35.94800186157226 M 32.768001556396484 -30.96560096740722 L 32.53900146484375 -30.92900085449218 L 32.12099838256836 -30.715999603271477 L 31.788999557495117 -30.384000778198235 L 31.576000213623047 -29.965999603271477 L 31.50200080871582 -29.502000808715813 L 31.576000213623047 -29.03899955749511 L 31.763011932373047 -28.67200088500976 L 31.788999557495117 -28.621000289916985 L 32.12099838256836 -28.28899955749511 L 32.53900146484375 -28.07600021362304 L 32.768001556396484 -28.039400100708 L 33.00199890136719 -28.002000808715813 L 33.465999603271484 -28.07600021362304 L 33.88399887084961 -28.28899955749511 L 34.215999603271484 -28.621000289916985 L 34.24198913574219 -28.67200088500976 L 34.42900085449219 -29.03899955749511 L 34.50299835205078 -29.502000808715813 L 34.42900085449219 -29.965999603271477 L 34.215999603271484 -30.384000778198235 L 33.88399887084961 -30.715999603271477 L 33.465999603271484 -30.92900085449218 L 33.00199890136719 -31.003000259399407 L 32.768001556396484 -30.96560096740722 M 6.144000053405762 -28.81081008911132 L 6.199999809265137 -28.80200004577636 L 6.664000034332275 -28.874999999999993 L 7.083000183105469 -29.087999343872063 L 7.415999889373779 -29.420000076293938 L 7.629000186920166 -29.83900070190429 L 7.703000068664551 -30.30200004577636 L 7.629000186920166 -30.766000747680657 L 7.415999889373779 -31.184000015258782 L 7.083000183105469 -31.516000747680657 L 6.664000034332275 -31.729000091552727 L 6.199999809265137 -31.802999496459954 L 6.144000053405762 -31.794069290161126 L 5.736000061035156 -31.729000091552727 L 5.316999912261963 -31.516000747680657 L 4.984000205993652 -31.184000015258782 L 4.770999908447266 -30.766000747680657 L 4.697999954223633 -30.30200004577636 L 4.770999908447266 -29.83900070190429 L 4.984000205993652 -29.420000076293938 L 5.316999912261963 -29.087999343872063 L 5.736000061035156 -28.874999999999993 L 6.144000053405762 -28.81081008911132 M 5.736000061035156 -8.270999908447264 L 6.144000053405762 -8.206809997558592 L 6.199999809265137 -8.197999954223631 L 6.664000034332275 -8.270999908447264 L 7.083000183105469 -8.48400020599365 L 7.415999889373779 -8.81599998474121 L 7.629000186920166 -9.23400020599365 L 7.703000068664551 -9.697999954223631 L 7.629000186920166 -10.161000251770018 L 7.415999889373779 -10.579999923706053 L 7.083000183105469 -10.911999702453612 L 6.664000034332275 -11.124999999999998 L 6.199999809265137 -11.197999954223631 L 6.144000053405762 -11.18918991088867 L 5.736000061035156 -11.124999999999998 L 5.316999912261963 -10.911999702453612 L 4.984000205993652 -10.579999923706053 L 4.770999908447266 -10.161000251770018 L 4.697999954223633 -9.697999954223631 L 4.770999908447266 -9.23400020599365 L 4.984000205993652 -8.81599998474121 L 5.316999912261963 -8.48400020599365 L 5.736000061035156 -8.270999908447264 M 32.768001556396484 16.039400100708004 L 32.53900146484375 16.076000213623043 L 32.12099838256836 16.288999557495114 L 32.0260009765625 16.38400077819824 L 31.788999557495117 16.62100028991699 L 31.576000213623047 17.038999557495114 L 31.50200080871582 17.502000808715817 L 31.576000213623047 17.96599960327148 L 31.788999557495117 18.38400077819824 L 32.12099838256836 18.71599960327148 L 32.53900146484375 18.929000854492184 L 32.768001556396484 18.965600967407223 L 33.00199890136719 19.00300025939941 L 33.465999603271484 18.929000854492184 L 33.88399887084961 18.71599960327148 L 34.215999603271484 18.38400077819824 L 34.42900085449219 17.96599960327148 L 34.50299835205078 17.502000808715817 L 34.42900085449219 17.038999557495114 L 34.215999603271484 16.62100028991699 L 33.979000091552734 16.38400077819824 L 33.88399887084961 16.288999557495114 L 33.465999603271484 16.076000213623043 L 33.00199890136719 16.002000808715817 L 32.768001556396484 16.039400100708004 M -17.003000259399414 -12.298000335693356 L 0 -12.298000335693356 L 4.697999954223633 -12.298000335693356 L 7.703000068664551 -12.298000335693356 L 14.003000259399414 -12.298000335693356 L 14.003000259399414 -16.38400077819824 L 14.003000259399414 -27.702999114990227 L 4.697999954223633 -27.702999114990227 L 0 -27.702999114990227 L -17.003000259399414 -27.702999114990227 L -17.003000259399414 -18.497999191284176 L -17.003000259399414 -12.298000335693356 M -24.715999603271484 -19.11700057983398 L -24.576000213623047 -18.97699928283691 L -24.382999420166016 -18.784000396728512 L -23.964000701904297 -18.57099914550781 L -23.5 -18.497999191284176 L -23.035999298095703 -18.57099914550781 L -22.617000579833984 -18.784000396728512 L -22.284000396728516 -19.11700057983398 L -22.070999145507812 -19.5359992980957 L -21.99799919128418 -19.999999999999996 L -22.070999145507812 -20.464000701904293 L -22.079133987426758 -20.479999542236325 L -22.284000396728516 -20.882999420166012 L -22.617000579833984 -21.21599960327148 L -23.035999298095703 -21.429000854492184 L -23.5 -21.502000808715817 L -23.964000701904297 -21.429000854492184 L -24.382999420166016 -21.21599960327148 L -24.576000213623047 -21.023000717163082 L -24.715999603271484 -20.882999420166012 L -24.929000854492188 -20.464000701904293 L -25.003000259399414 -19.999999999999996 L -24.929000854492188 -19.5359992980957 L -24.715999603271484 -19.11700057983398 M -36.53900146484375 -30.92900085449218 L -36.86399841308594 -30.980943679809563 L -37.00199890136719 -31.003000259399407 L -37.465999603271484 -30.92900085449218 L -37.88399887084961 -30.715999603271477 L -38.215999603271484 -30.384000778198235 L -38.42900085449219 -29.965999603271477 L -38.50299835205078 -29.502000808715813 L -38.42900085449219 -29.03899955749511 L -38.24198913574219 -28.67200088500976 L -38.215999603271484 -28.621000289916985 L -37.88399887084961 -28.28899955749511 L -37.465999603271484 -28.07600021362304 L -37.00199890136719 -28.002000808715813 L -36.53900146484375 -28.07600021362304 L -36.12099838256836 -28.28899955749511 L -35.78900146484375 -28.621000289916985 L -35.76301193237305 -28.67200088500976 L -35.57600021362305 -29.03899955749511 L -35.50199890136719 -29.502000808715813 L -35.57600021362305 -29.965999603271477 L -35.78900146484375 -30.384000778198235 L -36.12099838256836 -30.715999603271477 L -36.53900146484375 -30.92900085449218 M -37.88399887084961 16.288999557495114 L -37.979000091552734 16.38400077819824 L -38.215999603271484 16.62100028991699 L -38.42900085449219 17.038999557495114 L -38.50299835205078 17.502000808715817 L -38.42900085449219 17.96599960327148 L -38.215999603271484 18.38400077819824 L -37.88399887084961 18.71599960327148 L -37.465999603271484 18.929000854492184 L -37.00199890136719 19.00300025939941 L -36.86399841308594 18.980943679809567 L -36.53900146484375 18.929000854492184 L -36.12099838256836 18.71599960327148 L -35.78900146484375 18.38400077819824 L -35.57600021362305 17.96599960327148 L -35.50199890136719 17.502000808715817 L -35.57600021362305 17.038999557495114 L -35.78900146484375 16.62100028991699 L -36.0260009765625 16.38400077819824 L -36.12099838256836 16.288999557495114 L -36.53900146484375 16.076000213623043 L -37.00199890136719 16.002000808715817 L -37.465999603271484 16.076000213623043 L -37.88399887084961 16.288999557495114 z" fill="none" stroke="rgb(255,0,0)" stroke-width="0.001mm" />
</svg>