<?xml version="1.0" standalone="no"?>
<!DOCTYPE svg PUBLIC "-//W3C//DTD SVG 1.1//EN"
  "http://www.w3.org/Graphics/SVG/1.1/DTD/svg11.dtd">
<svg width="92mm" height="72.00000190734862mm" viewBox="-83 -47.72000122070312 92 72.00000190734862" xmlns="http://www.w3.org/2000/svg" version="1.1">
	<title>svgOutput</title>
	<desc>made with tinkercad</desc>
<path d="M 4.515999794006348 -44.009998321533196 L 5.616021633148193 -43.00799942016601 L 5.728000164031982 -42.90599822998046 L 6.703000068664551 -41.66799926757812 L 7.0802130699157715 -40.95999908447265 L 7.418000221252441 -40.32600021362304 L 7.854000091552734 -38.91500091552734 L 7.854302406311035 -38.91199874877929 L 8 -37.46699905395507 L 8 -36.86399841308593 L 8 -32.76800155639648 L 8 -28.67200088500976 L 8 -24.57600021362304 L 8 -20.479999542236325 L 8 -16.38400077819824 L 8 -12.28800010681152 L 8 -8.19200038909912 L 8 -4.09600019454956 L 8 1.1102230246251565e-16 L 8 4.09600019454956 L 8 8.19200038909912 L 8 12.28800010681152 L 8 14.02700042724609 L 7.968843936920166 14.33600044250488 L 7.854000091552734 15.475000381469723 L 7.573118209838867 16.38400077819824 L 7.418000221252441 16.885999679565426 L 6.703000068664551 18.228000640869137 L 6.542337417602539 18.431999206542965 L 5.728000164031982 19.46599960327148 L 4.614804267883301 20.479999542236325 L 4.515999794006348 20.569999694824215 L 4.0960001945495605 20.848915100097653 L 3.0959999561309814 21.513000488281246 L 2.0480000972747803 22.01198577880859 L 1.503999948501587 22.270999908447262 L 0 22.756048202514645 L -0.2199999988079071 22.826999664306637 L -2.0360000133514404 23.166000366210934 L -2.0480000972747803 23.166734695434567 L -3.8970000743865967 23.280000686645504 L -4.0960001945495605 23.280000686645504 L -8.192000389099121 23.280000686645504 L -12.288000106811523 23.280000686645504 L -16.384000778198242 23.280000686645504 L -20.479999542236328 23.280000686645504 L -24.576000213623047 23.280000686645504 L -28.672000885009766 23.280000686645504 L -32.768001556396484 23.280000686645504 L -36.86399841308594 23.280000686645504 L -40.959999084472656 23.280000686645504 L -45.055999755859375 23.280000686645504 L -49.152000427246094 23.280000686645504 L -53.24800109863281 23.280000686645504 L -57.34400177001953 23.280000686645504 L -61.439998626708984 23.280000686645504 L -65.53600311279297 23.280000686645504 L -69.63200378417969 23.280000686645504 L -70.10299682617188 23.280000686645504 L -71.68000030517578 23.183397293090817 L -71.96399688720703 23.166000366210934 L -73.72799682617188 22.83670616149902 L -73.77999877929688 22.826999664306637 L -75.50399780273438 22.270999908447262 L -75.7760009765625 22.141492843627926 L -77.09600067138672 21.513000488281246 L -77.8239974975586 21.029546737670895 L -78.51599884033203 20.569999694824215 L -78.61480712890625 20.479999542236325 L -79.72799682617188 19.46599960327148 L -80.5423355102539 18.431999206542965 L -80.7030029296875 18.228000640869137 L -81.41799926757812 16.885999679565426 L -81.5731201171875 16.38400077819824 L -81.85399627685547 15.475000381469723 L -81.91999816894531 14.820425033569332 L -82 14.02700042724609 L -82 1.1102230246251565e-16 L -82 -16.38400077819824 L -82 -32.76800155639648 L -82 -37.46699905395507 L -81.91999816894531 -38.260425567626946 L -81.85430145263672 -38.91199874877929 L -81.85399627685547 -38.91500091552734 L -81.41799926757812 -40.32600021362304 L -81.08021545410156 -40.95999908447265 L -80.7030029296875 -41.66799926757812 L -79.87200164794922 -42.72315597534179 L -79.72799682617188 -42.90599822998046 L -79.61602020263672 -43.00799942016601 L -78.51599884033203 -44.009998321533196 L -77.8239974975586 -44.46954727172851 L -77.09600067138672 -44.95299911499023 L -76.87966918945312 -45.05599975585937 L -75.50399780273438 -45.71099853515624 L -73.77999877929688 -46.26699829101562 L -73.72799682617188 -46.27670669555663 L -71.96399688720703 -46.605998992919915 L -71.68000030517578 -46.62339782714843 L -70.10299682617188 -46.72000122070312 L -69.63200378417969 -46.72000122070312 L -65.53600311279297 -46.72000122070312 L -61.439998626708984 -46.72000122070312 L -57.34400177001953 -46.72000122070312 L -53.24800109863281 -46.72000122070312 L -49.152000427246094 -46.72000122070312 L -45.055999755859375 -46.72000122070312 L -40.959999084472656 -46.72000122070312 L -36.86399841308594 -46.72000122070312 L -32.768001556396484 -46.72000122070312 L -28.672000885009766 -46.72000122070312 L -24.576000213623047 -46.72000122070312 L -20.479999542236328 -46.72000122070312 L -16.384000778198242 -46.72000122070312 L -12.288000106811523 -46.72000122070312 L -8.192000389099121 -46.72000122070312 L -4.0960001945495605 -46.72000122070312 L -3.8970000743865967 -46.72000122070312 L -2.0480000972747803 -46.60673522949218 L -2.0360000133514404 -46.605998992919915 L -0.2199999988079071 -46.26699829101562 L -2.6800649305619255e-14 -46.19604873657226 L 1.503999948501587 -45.71099853515624 L 2.8796727657318115 -45.05599975585937 L 3.0959999561309814 -44.95299911499023 L 4.0960001945495605 -44.28891372680663 L 4.515999794006348 -44.009998321533196 M -2.4609999656677246 -33.796001434326165 L -1.9980000257492065 -33.722000122070305 L -1.534000039100647 -33.796001434326165 L -1.1160000562667847 -34.0089988708496 L -0.7839999794960022 -34.34099960327148 L -0.5709999799728394 -34.7589988708496 L -0.5620129704475403 -34.81600189208984 L -0.49799999594688416 -35.222000122070305 L -0.5709999799728394 -35.6860008239746 L -0.7839999794960022 -36.10400009155273 L -1.1160000562667847 -36.4360008239746 L -1.534000039100647 -36.64899826049804 L -1.9980000257492065 -36.7229995727539 L -2.4609999656677246 -36.64899826049804 L -2.878999948501587 -36.4360008239746 L -3.2109999656677246 -36.10400009155273 L -3.4240000247955322 -35.6860008239746 L -3.497999906539917 -35.222000122070305 L -3.433110237121582 -34.81600189208984 L -3.4240000247955322 -34.7589988708496 L -3.2109999656677246 -34.34099960327148 L -2.878999948501587 -34.0089988708496 L -2.4609999656677246 -33.796001434326165 M -3.4240000247955322 12.246000289916989 L -3.4025981426239014 12.28800010681152 L -3.2109999656677246 12.663999557495114 L -2.878999948501587 12.996000289916989 L -2.4609999656677246 13.208999633789059 L -1.9980000257492065 13.282999992370602 L -1.534000039100647 13.208999633789059 L -1.1160000562667847 12.996000289916989 L -0.7839999794960022 12.663999557495114 L -0.592401921749115 12.28800010681152 L -0.5709999799728394 12.246000289916989 L -0.49799999594688416 11.781999588012694 L -0.5709999799728394 11.319000244140623 L -0.7839999794960022 10.901000022888182 L -1.1160000562667847 10.569000244140623 L -1.534000039100647 10.355999946594237 L -1.9980000257492065 10.281999588012694 L -2.4609999656677246 10.355999946594237 L -2.878999948501587 10.569000244140623 L -3.2109999656677246 10.901000022888182 L -3.4240000247955322 11.319000244140623 L -3.497999906539917 11.781999588012694 L -3.4240000247955322 12.246000289916989 M -72.46600341796875 -33.796001434326165 L -72.00199890136719 -33.722000122070305 L -71.53900146484375 -33.796001434326165 L -71.12100219726562 -34.0089988708496 L -70.78900146484375 -34.34099960327148 L -70.57599639892578 -34.7589988708496 L -70.56688690185547 -34.81600189208984 L -70.50199890136719 -35.222000122070305 L -70.57599639892578 -35.6860008239746 L -70.78900146484375 -36.10400009155273 L -71.12100219726562 -36.4360008239746 L -71.53900146484375 -36.64899826049804 L -72.00199890136719 -36.7229995727539 L -72.46600341796875 -36.64899826049804 L -72.88400268554688 -36.4360008239746 L -73.21600341796875 -36.10400009155273 L -73.42900085449219 -35.6860008239746 L -73.50299835205078 -35.222000122070305 L -73.4381103515625 -34.81600189208984 L -73.42900085449219 -34.7589988708496 L -73.21600341796875 -34.34099960327148 L -72.88400268554688 -34.0089988708496 L -72.46600341796875 -33.796001434326165 M -73.42900085449219 12.246000289916989 L -73.40760040283203 12.28800010681152 L -73.21600341796875 12.663999557495114 L -72.88400268554688 12.996000289916989 L -72.46600341796875 13.208999633789059 L -72.00199890136719 13.282999992370602 L -71.53900146484375 13.208999633789059 L -71.12100219726562 12.996000289916989 L -70.78900146484375 12.663999557495114 L -70.59740447998047 12.28800010681152 L -70.57599639892578 12.246000289916989 L -70.50199890136719 11.781999588012694 L -70.57599639892578 11.319000244140623 L -70.78900146484375 10.901000022888182 L -71.12100219726562 10.569000244140623 L -71.53900146484375 10.355999946594237 L -72.00199890136719 10.281999588012694 L -72.46600341796875 10.355999946594237 L -72.88400268554688 10.569000244140623 L -73.21600341796875 10.901000022888182 L -73.42900085449219 11.319000244140623 L -73.50299835205078 11.781999588012694 L -73.42900085449219 12.246000289916989 z" fill="none" stroke="rgb(255,0,0)" stroke-width="0.001mm" />
</svg>